<svg xmlns="http://www.w3.org/2000/svg" viewBox="0 0 640 640">
  <defs>
    <linearGradient id="dumbbellInternal3DTransparent" x1="20%" y1="10%" x2="80%" y2="90%">
      <stop offset="0%" style="stop-color:#ff9482;stop-opacity:1" />
      <stop offset="45%" style="stop-color:#E6533C;stop-opacity:1" />
      <stop offset="100%" style="stop-color:#9e2b19;stop-opacity:1" />
    </linearGradient>

    <filter id="coloredDropShadowTransparent" x="-50%" y="-50%" width="200%" height="200%">
      <feDropShadow dx="12" dy="12" stdDeviation="10" flood-color="#4a0f08" flood-opacity="0.9"/>
    </filter>
  </defs>

  <path fill="url(#dumbbellInternal3DTransparent)" filter="url(#coloredDropShadowTransparent)" d="M96 176C96 149.5 117.5 128 144 128C170.5 128 192 149.5 192 176L192 288L448 288L448 176C448 149.5 469.5 128 496 128C522.5 128 544 149.5 544 176L544 192L560 192C586.5 192 608 213.5 608 240L608 288C625.7 288 640 302.3 640 320C640 337.7 625.7 352 608 352L608 400C608 426.5 586.5 448 560 448L544 448L544 464C544 490.5 522.5 512 496 512C469.5 512 448 490.5 448 464L448 352L192 352L192 464C192 490.5 170.5 512 144 512C117.5 512 96 490.5 96 464L96 448L80 448C53.5 448 32 426.5 32 400L32 352C14.3 352 0 337.7 0 320C0 302.3 14.3 288 32 288L32 240C32 213.5 53.5 192 80 192L96 192L96 176z"/>
</svg>